<?xml version="1.0" encoding="iso-8859-1"?>
<!-- Uploaded to: SVG Repo, www.svgrepo.com, Generator: SVG Repo Mixer Tools -->
<svg height="800px" width="800px" version="1.1" id="Layer_1" xmlns="http://www.w3.org/2000/svg" xmlns:xlink="http://www.w3.org/1999/xlink" 
	 viewBox="0 0 512 512" xml:space="preserve">
<path style="fill:#C9E3F7;" d="M479.373,353.103c15.254-32.108,23.799-68.018,23.799-105.931C503.172,110.664,392.51,0,256,0
	S8.828,110.664,8.828,247.172c0,37.913,8.547,73.823,23.799,105.931l82.132,35.31L167.724,512h176.552l52.966-123.586
	L479.373,353.103z"/>
<path style="fill:#AED5F3;" d="M479.373,353.103c15.254-32.108,23.799-68.018,23.799-105.931C503.172,110.664,392.51,0,256,0
	c0,56.497,0,512,0,512h88.276l52.966-123.586L479.373,353.103z"/>
<g>
	<circle style="fill:#FFFFFF;" cx="150.069" cy="264.828" r="70.621"/>
	<circle style="fill:#FFFFFF;" cx="361.931" cy="264.828" r="70.621"/>
	<path style="fill:#FFFFFF;" d="M218.672,400.215c8.693,8.166,22.362,7.737,30.528-0.957l6.801-7.24l6.801,7.24
		c8.166,8.693,21.832,9.122,30.526,0.957c8.695-8.164,9.122-21.832,0.957-30.526L256,332.505l-38.283,37.182
		C209.551,378.382,209.98,392.049,218.672,400.215z"/>
</g>
</svg>